<?xml version="1.0" encoding="utf-8"?>
<!-- Generator: Adobe Illustrator 18.0.0, SVG Export Plug-In . SVG Version: 6.00 Build 0)  -->
<!DOCTYPE svg PUBLIC "-//W3C//DTD SVG 1.1//EN" "http://www.w3.org/Graphics/SVG/1.1/DTD/svg11.dtd">
<svg version="1.1" xmlns="http://www.w3.org/2000/svg" xmlns:xlink="http://www.w3.org/1999/xlink" x="0px" y="0px"
	 viewBox="0 0 150 150" enable-background="new 0 0 150 150" xml:space="preserve">
<g id="outlines" display="none">
	<g display="inline">
		<path d="M140,10v130H10V10H140 M150,0H0v150h150V0L150,0z"/>
	</g>
</g>
<g id="Layer_1">
	<path fill="none" stroke="#000000" stroke-width="10" stroke-miterlimit="10" d="M23.6,145c-10.6,0-19.1-8.9-19.1-19.5
		S13.2,106,23.8,106h5.8h119.1c-10.6,0-19.3,8.9-19.3,19.5S138,145,148.6,145h-119H23.6z"/>
	<path stroke="#000000" stroke-width="10" stroke-miterlimit="10" d="M103.5,69c10.6,0,19.1,7.9,19.1,18.5s-8.7,18.5-19.3,18.5h-5.8
		H28.7C39.3,106,48,98.1,48,87.5S39.5,69,28.9,69h68.6H103.5z"/>
	<path fill="none" stroke="#000000" stroke-width="10" stroke-miterlimit="10" d="M28.7,69C18.1,69,9.6,60.1,9.6,49.5
		S18.2,30,28.8,30h5.8h102c-10.6,0-19.3,8.9-19.3,19.5S125.9,69,136.5,69H34.7H28.7z"/>
	<polygon fill="#FFFFFF" stroke="#000000" stroke-width="10" stroke-miterlimit="10" points="79.2,117.9 60.9,106.8 42.6,117.9 
		42.6,49.3 79.2,49.3 	"/>
	<line fill="none" stroke="#000000" stroke-width="10" stroke-miterlimit="10" x1="38" y1="49" x2="117" y2="49"/>
</g>
</svg>
