<?xml version="1.0" encoding="utf-8"?>
<!-- Generator: Adobe Illustrator 18.0.0, SVG Export Plug-In . SVG Version: 6.00 Build 0)  -->
<!DOCTYPE svg PUBLIC "-//W3C//DTD SVG 1.1//EN" "http://www.w3.org/Graphics/SVG/1.1/DTD/svg11.dtd">
<svg version="1.1" xmlns="http://www.w3.org/2000/svg" xmlns:xlink="http://www.w3.org/1999/xlink" x="0px" y="0px"
	 viewBox="0 0 150 150" enable-background="new 0 0 150 150" xml:space="preserve">
<g id="outlines" display="none">
	<g display="inline">
		<path d="M140,10v130H10V10H140 M150,0H0v150h150V0L150,0z"/>
	</g>
</g>
<g id="Layer_1">
	<circle fill="none" stroke="#000000" stroke-width="10" stroke-miterlimit="10" cx="35.4" cy="88.6" r="11.2"/>
	<circle fill="none" stroke="#000000" stroke-width="10" stroke-miterlimit="10" cx="117.4" cy="88.6" r="11.2"/>
	<rect x="23.4" y="126" stroke="#000000" stroke-width="10" stroke-miterlimit="10" width="22.3" height="19.6"/>
	<rect x="107.1" y="125.3" stroke="#000000" stroke-width="10" stroke-miterlimit="10" width="22.3" height="19.6"/>
	<polygon fill="none" stroke="#000000" stroke-width="10" stroke-miterlimit="10" points="144,53.8 144,131 6,131 6,53.8 27.9,5 
		122.1,5 	"/>
	<line fill="none" stroke="#000000" stroke-width="10" stroke-miterlimit="10" x1="62" y1="81" x2="62" y2="97"/>
	<line fill="none" stroke="#000000" stroke-width="10" stroke-miterlimit="10" x1="76" y1="81" x2="76" y2="97"/>
	<line fill="none" stroke="#000000" stroke-width="10" stroke-miterlimit="10" x1="90" y1="81" x2="90" y2="97"/>
	<line fill="none" stroke="#000000" stroke-width="10" stroke-miterlimit="10" x1="57" y1="112" x2="95" y2="112"/>
	<line fill="none" stroke="#000000" stroke-width="10" stroke-miterlimit="10" x1="6" y1="55" x2="144" y2="55"/>
	<path fill="none" stroke="#000000" stroke-width="10" stroke-miterlimit="10" d="M98.3,64.6"/>
	<path fill="none" stroke="#000000" stroke-width="10" stroke-miterlimit="10" d="M89.5,50.8c0-7.6,6.2-13.8,13.8-13.8
		s13.8,6.2,13.8,13.8"/>
	<polyline fill="none" stroke="#000000" stroke-width="10" stroke-miterlimit="10" points="58.4,55 55.7,42.9 32.3,42.9 29.6,55 	
		"/>
</g>
</svg>
