<?xml version="1.0" encoding="utf-8"?>
<!-- Generator: Adobe Illustrator 18.0.0, SVG Export Plug-In . SVG Version: 6.00 Build 0)  -->
<!DOCTYPE svg PUBLIC "-//W3C//DTD SVG 1.1//EN" "http://www.w3.org/Graphics/SVG/1.1/DTD/svg11.dtd">
<svg version="1.1" xmlns="http://www.w3.org/2000/svg" xmlns:xlink="http://www.w3.org/1999/xlink" x="0px" y="0px"
	 viewBox="0 0 150 150" enable-background="new 0 0 150 150" xml:space="preserve">
<g id="outlines" display="none">
	<g display="inline">
		<path d="M140,10v130H10V10H140 M150,0H0v150h150V0L150,0z"/>
	</g>
</g>
<g id="Layer_1">
	<g>
		<rect x="36" y="18.5" fill="none" width="49" height="45.5"/>
		<text transform="matrix(1 0 0 1 35.9532 57.2024)" font-family="'SuperGroteskA-Bd'" font-size="53">I</text>
		<g>
			<polygon fill="none" stroke="#000000" stroke-width="10" stroke-miterlimit="10" points="106.2,5 21,5 21,145 131,145 131,29.8 
							"/>
			<polyline fill="none" stroke="#000000" stroke-width="10" stroke-miterlimit="10" points="131,29.8 106.2,29.8 106.2,5 			"/>
		</g>
		<g>
			<g>
				<path fill="none" stroke="#000000" stroke-width="10" stroke-miterlimit="10" d="M39,76.5c6.2,0,6.2,4,12.5,4
					c6.2,0,6.2-4,12.5-4c6.3,0,6.3,4,12.5,4c6.2,0,6.2-4,12.5-4c6.3,0,6.3,4,12.5,4c6.3,0,6.3-4,12.5-4"/>
			</g>
			<g>
				<path fill="none" stroke="#000000" stroke-width="10" stroke-miterlimit="10" d="M39,96.5c6.2,0,6.2,4,12.5,4
					c6.2,0,6.2-4,12.5-4c6.3,0,6.3,4,12.5,4c6.2,0,6.2-4,12.5-4c6.3,0,6.3,4,12.5,4c6.3,0,6.3-4,12.5-4"/>
			</g>
			<g>
				<path fill="none" stroke="#000000" stroke-width="10" stroke-miterlimit="10" d="M39,116.5c6.2,0,6.2,4,12.5,4
					c6.2,0,6.2-4,12.5-4c6.3,0,6.3,4,12.5,4c6.2,0,6.2-4,12.5-4c6.3,0,6.3,4,12.5,4c6.3,0,6.3-4,12.5-4"/>
			</g>
		</g>
	</g>
</g>
</svg>
