<?xml version="1.0" encoding="utf-8"?>
<!-- Generator: Adobe Illustrator 18.0.0, SVG Export Plug-In . SVG Version: 6.00 Build 0)  -->
<!DOCTYPE svg PUBLIC "-//W3C//DTD SVG 1.1//EN" "http://www.w3.org/Graphics/SVG/1.1/DTD/svg11.dtd">
<svg version="1.1" id="Layer_1" xmlns="http://www.w3.org/2000/svg" xmlns:xlink="http://www.w3.org/1999/xlink" x="0px" y="0px"
	 viewBox="0 0 150 150" enable-background="new 0 0 150 150" xml:space="preserve">
<g>
	<rect x="35" y="18.5" fill="none" width="49" height="45.5"/>
	<text transform="matrix(1 0 0 1 34.9532 57.2024)" font-family="'SuperGroteskA-Bd'" font-size="53">M</text>
	<g>
		<polygon fill="none" stroke="#000000" stroke-width="10" stroke-miterlimit="10" points="105.2,5 20,5 20,145 130,145 130,29.8 		
			"/>
		<polyline fill="none" stroke="#000000" stroke-width="10" stroke-miterlimit="10" points="130,29.8 105.2,29.8 105.2,5 		"/>
	</g>
	<g>
		<g>
			<path fill="none" stroke="#000000" stroke-width="10" stroke-miterlimit="10" d="M38,76.5c6.2,0,6.2,4,12.5,4c6.2,0,6.2-4,12.5-4
				c6.3,0,6.3,4,12.5,4c6.2,0,6.2-4,12.5-4c6.3,0,6.3,4,12.5,4c6.3,0,6.3-4,12.5-4"/>
		</g>
		<g>
			<path fill="none" stroke="#000000" stroke-width="10" stroke-miterlimit="10" d="M38,96.5c6.2,0,6.2,4,12.5,4c6.2,0,6.2-4,12.5-4
				c6.3,0,6.3,4,12.5,4c6.2,0,6.2-4,12.5-4c6.3,0,6.3,4,12.5,4c6.3,0,6.3-4,12.5-4"/>
		</g>
		<g>
			<path fill="none" stroke="#000000" stroke-width="10" stroke-miterlimit="10" d="M38,116.5c6.2,0,6.2,4,12.5,4
				c6.2,0,6.2-4,12.5-4c6.3,0,6.3,4,12.5,4c6.2,0,6.2-4,12.5-4c6.3,0,6.3,4,12.5,4c6.3,0,6.3-4,12.5-4"/>
		</g>
	</g>
</g>
</svg>
