<?xml version="1.0" encoding="utf-8"?>
<!-- Generator: Adobe Illustrator 18.0.0, SVG Export Plug-In . SVG Version: 6.00 Build 0)  -->
<!DOCTYPE svg PUBLIC "-//W3C//DTD SVG 1.1//EN" "http://www.w3.org/Graphics/SVG/1.1/DTD/svg11.dtd">
<svg version="1.1" id="Layer_1" xmlns="http://www.w3.org/2000/svg" xmlns:xlink="http://www.w3.org/1999/xlink" x="0px" y="0px"
	 viewBox="0 0 150 150" enable-background="new 0 0 150 150" xml:space="preserve">
<rect x="17.4" y="55.2" fill="none" width="115.2" height="39.6"/>
<text transform="matrix(1 0 0 1 61.0349 93.8668)" font-family="'SuperGroteskA-Bd'" font-size="53">$</text>
<g>
	<path fill="none" d="M0,94.1C-1,94.1-2,94-3,94c-20.1,0-36.5,16.4-36.5,36.5S-23.1,167-3,167s36.5-16.1,36.5-36.2
		c0-2.4-0.2-4.8-0.7-6.8H0V94.1z"/>
	<path fill="none" d="M10,96.4V114h19.3C25.2,106,18.3,99.6,10,96.4z"/>
	<path fill="none" d="M29.3,37H10v16.6C18.3,50.4,25.2,44,29.3,37z"/>
	<path fill="none" d="M32.8,27c0.4-3,0.7-4.9,0.7-7.2C33.5-0.4,17.1-16.9-3-16.9S-39.5-0.6-39.5,19.6S-23.1,56-3,56c1,0,2-0.1,3-0.2
		V27H32.8z"/>
	<path fill="none" d="M140,96.4c-8.3,3.2-15.2,9.6-19.3,17.6H140V96.4z"/>
	<path fill="none" d="M140,85.9V64.1c-13.9-4-25-14.1-30.3-27.1H40.3C35,50,23.9,60.1,10,64.1v21.7c13.9,4,25,14.1,30.3,28.1h69.4
		C115,100,126.1,89.9,140,85.9z"/>
	<path fill="none" d="M140,53.6V37h-19.3C124.8,44,131.7,50.4,140,53.6z"/>
	<path fill="none" d="M117.2,124c-0.4,2-0.7,4.4-0.7,6.8c0,20.1,16.4,36.4,36.5,36.4s36.5-16.4,36.5-36.6S173.1,94,153,94
		c-1,0-2,0-3,0.1V124H117.2z"/>
	<path fill="none" d="M150,55.9c1,0.1,2,0.1,3,0.1c20.1,0,36.5-16.4,36.5-36.5S173.1-17,153-17s-36.5,16.6-36.5,36.8
		c0,2.4,0.2,4.2,0.7,7.2H150V55.9z"/>
	<path d="M29.3,37c1.6-4,2.8-7,3.5-10H0v28.9c3.5-0.3,6.9-1.1,10-2.3V37H29.3z"/>
	<path d="M140,85.9c3.2-0.9,6.6-1.5,10-1.7V65.9c-3.4-0.2-6.8-0.8-10-1.7V85.9z"/>
	<path d="M140,114h-19.3c-1.6,3-2.8,6-3.5,10H150V94.1c-3.5,0.3-6.9,1.1-10,2.3V114z"/>
	<path d="M140,53.6c3.1,1.2,6.5,2,10,2.3V27h-32.8c0.7,3,1.9,6,3.5,10H140V53.6z"/>
	<path d="M40.3,114c1.2,3,2.2,6,2.7,10H107c0.5-4,1.4-7,2.7-10H40.3z"/>
	<path d="M10,96.4c-3.1-1.2-6.5-2-10-2.3V124h32.8c-0.7-4-1.9-7-3.5-10H10V96.4z"/>
	<path d="M109.7,37c-1.2-4-2.2-7-2.7-10H43c-0.5,3-1.4,6-2.7,10H109.7z"/>
	<path d="M10,64.1c-3.2,0.9-6.6,1.5-10,1.7v18.2c3.4,0.2,6.8,0.8,10,1.7V64.1z"/>
	<path d="M40.3,37h-11c-4.1,7-11,13.4-19.3,16.6v10.5C23.9,60.1,35,50,40.3,37z"/>
	<path d="M29.3,37h11c1.2-4,2.2-7,2.7-10H32.8C32.1,30,30.9,33,29.3,37z"/>
	<path d="M10,53.6c-3.1,1.2-6.5,2-10,2.3v10c3.4-0.2,6.8-0.8,10-1.7V53.6z"/>
	<path d="M140,64.1V53.6c-8.3-3.2-15.2-9.6-19.3-16.6h-11C115,50,126.1,60.1,140,64.1z"/>
	<path d="M120.7,37c-1.6-4-2.8-7-3.5-10H107c0.5,3,1.4,6,2.7,10H120.7z"/>
	<path d="M140,53.6v10.5c3.2,0.9,6.6,1.5,10,1.7v-10C146.5,55.6,143.1,54.8,140,53.6z"/>
	<path d="M10,85.9v10.5c8.3,3.2,15.2,9.6,19.3,17.6h11C35,100,23.9,89.9,10,85.9z"/>
	<path d="M10,96.4V85.9c-3.2-0.9-6.6-1.5-10-1.7v10C3.5,94.4,6.9,95.2,10,96.4z"/>
	<path d="M29.3,114c1.6,3,2.8,6,3.5,10H43c-0.5-4-1.4-7-2.7-10H29.3z"/>
	<path d="M140,96.4V85.9c-13.9,4-25,14.1-30.3,28.1h11C124.8,106,131.7,99.6,140,96.4z"/>
	<path d="M120.7,114h-11c-1.2,3-2.2,6-2.7,10h10.2C117.9,120,119.1,117,120.7,114z"/>
	<path d="M140,96.4c3.1-1.2,6.5-2,10-2.3v-10c-3.4,0.2-6.8,0.8-10,1.7V96.4z"/>
</g>
</svg>
