<?xml version="1.0" encoding="utf-8"?>
<!-- Generator: Adobe Illustrator 18.0.0, SVG Export Plug-In . SVG Version: 6.00 Build 0)  -->
<!DOCTYPE svg PUBLIC "-//W3C//DTD SVG 1.1//EN" "http://www.w3.org/Graphics/SVG/1.1/DTD/svg11.dtd">
<svg version="1.1" xmlns="http://www.w3.org/2000/svg" xmlns:xlink="http://www.w3.org/1999/xlink" x="0px" y="0px"
	 viewBox="0 0 150 150" enable-background="new 0 0 150 150" xml:space="preserve">
<g id="outlines" display="none">
	<g display="inline">
		<path d="M140,10v130H10V10H140 M150,0H0v150h150V0L150,0z"/>
	</g>
</g>
<g id="Layer_1">
	<path fill="none" stroke="#000000" stroke-width="10" stroke-miterlimit="10" d="M63,127.9c0-6.8,10.1-20.1,10.1-20.1
		s10.1,13.3,10.1,20.1c0,6.8-4.5,12.2-10.1,12.2C67.5,140.1,63,134.6,63,127.9z"/>
	<text transform="matrix(1 0 0 1 54.4033 44.3911)"><tspan x="0" y="0" font-family="'SuperGroteskA-Bd'" font-size="29">O</tspan><tspan x="23" y="0" font-family="'SuperGroteskA-Bd'" font-size="29">il</tspan></text>
	<polygon fill="none" stroke="#000000" stroke-width="10" stroke-miterlimit="10" points="99.2,68 50.3,68 37.1,5 112.4,5 	"/>
	<polyline fill="none" stroke="#000000" stroke-width="10" stroke-miterlimit="10" points="105.6,29.4 124,29.4 124,43.5 	"/>
	<rect x="69.9" y="68.6" stroke="#000000" stroke-width="10" stroke-miterlimit="10" width="9.7" height="17.6"/>
</g>
</svg>
