<?xml version="1.0" encoding="utf-8"?>
<!-- Generator: Adobe Illustrator 18.0.0, SVG Export Plug-In . SVG Version: 6.00 Build 0)  -->
<!DOCTYPE svg PUBLIC "-//W3C//DTD SVG 1.1//EN" "http://www.w3.org/Graphics/SVG/1.1/DTD/svg11.dtd">
<svg version="1.1" id="Layer_1" xmlns="http://www.w3.org/2000/svg" xmlns:xlink="http://www.w3.org/1999/xlink" x="0px" y="0px"
	 viewBox="0 0 150 150" enable-background="new 0 0 150 150" xml:space="preserve">
<g>
	<circle fill="none" stroke="#000000" stroke-width="10" stroke-miterlimit="10" cx="75" cy="75" r="70"/>
	<g>
		<defs>
			<circle id="SVGID_1_" cx="75" cy="75" r="70"/>
		</defs>
		<clipPath id="SVGID_2_">
			<use xlink:href="#SVGID_1_"  overflow="visible"/>
		</clipPath>
		<g clip-path="url(#SVGID_2_)">
			<g>
				<path fill="none" stroke="#000000" stroke-width="10" stroke-miterlimit="10" d="M150,50c-15,0-15-10-30-10c-15,0-15,10-30,10
					c-15,0-15-10-30-10c-15,0-15,10-30,10S15,40,0,40"/>
			</g>
			<g>
				<path fill="none" stroke="#000000" stroke-width="10" stroke-miterlimit="10" d="M150,80c-15,0-15-10-30-10c-15,0-15,10-30,10
					c-15,0-15-10-30-10c-15,0-15,10-30,10S15,70,0,70"/>
			</g>
			<g>
				<path fill="none" stroke="#000000" stroke-width="10" stroke-miterlimit="10" d="M150,110c-15,0-15-10-30-10c-15,0-15,10-30,10
					c-15,0-15-10-30-10c-15,0-15,10-30,10s-15-10-30-10"/>
			</g>
		</g>
	</g>
</g>
</svg>
