<?xml version="1.0" encoding="utf-8"?>
<!-- Generator: Adobe Illustrator 18.0.0, SVG Export Plug-In . SVG Version: 6.00 Build 0)  -->
<!DOCTYPE svg PUBLIC "-//W3C//DTD SVG 1.1//EN" "http://www.w3.org/Graphics/SVG/1.1/DTD/svg11.dtd">
<svg version="1.1" id="Layer_1" xmlns="http://www.w3.org/2000/svg" xmlns:xlink="http://www.w3.org/1999/xlink" x="0px" y="0px"
	 viewBox="0 0 150 150" enable-background="new 0 0 150 150" xml:space="preserve">
<circle fill="none" stroke="#000000" stroke-width="10" stroke-miterlimit="10" cx="75" cy="75" r="70"/>
<circle fill="none" cx="75" cy="75" r="70"/>
<polyline fill="none" stroke="#000000" stroke-width="10" stroke-miterlimit="10" points="75,42 75,75 57.7,85 "/>
<g>
	<line fill="none" stroke="#000000" stroke-width="10" stroke-miterlimit="10" x1="75" y1="135" x2="75" y2="127"/>
	<line fill="none" stroke="#000000" stroke-width="10" stroke-miterlimit="10" x1="105" y1="127" x2="101" y2="120"/>
	<line fill="none" stroke="#000000" stroke-width="10" stroke-miterlimit="10" x1="127" y1="105" x2="120" y2="101"/>
	<line fill="none" stroke="#000000" stroke-width="10" stroke-miterlimit="10" x1="135" y1="75" x2="127" y2="75"/>
	<line fill="none" stroke="#000000" stroke-width="10" stroke-miterlimit="10" x1="127" y1="45" x2="120" y2="49"/>
	<line fill="none" stroke="#000000" stroke-width="10" stroke-miterlimit="10" x1="105" y1="23" x2="101" y2="30"/>
	<line fill="none" stroke="#000000" stroke-width="10" stroke-miterlimit="10" x1="75" y1="15" x2="75" y2="23"/>
	<line fill="none" stroke="#000000" stroke-width="10" stroke-miterlimit="10" x1="45" y1="23" x2="49" y2="30"/>
	<line fill="none" stroke="#000000" stroke-width="10" stroke-miterlimit="10" x1="23" y1="45" x2="30" y2="49"/>
	<line fill="none" stroke="#000000" stroke-width="10" stroke-miterlimit="10" x1="15" y1="75" x2="23" y2="75"/>
	<line fill="none" stroke="#000000" stroke-width="10" stroke-miterlimit="10" x1="23" y1="105" x2="30" y2="101"/>
	<line fill="none" stroke="#000000" stroke-width="10" stroke-miterlimit="10" x1="45" y1="127" x2="49" y2="120"/>
</g>
</svg>
