<?xml version="1.0" encoding="utf-8"?>
<!-- Generator: Adobe Illustrator 18.0.0, SVG Export Plug-In . SVG Version: 6.00 Build 0)  -->
<!DOCTYPE svg PUBLIC "-//W3C//DTD SVG 1.1//EN" "http://www.w3.org/Graphics/SVG/1.1/DTD/svg11.dtd">
<svg version="1.1" id="Layer_1" xmlns="http://www.w3.org/2000/svg" xmlns:xlink="http://www.w3.org/1999/xlink" x="0px" y="0px"
	 viewBox="0 0 150 150" enable-background="new 0 0 150 150" xml:space="preserve">
<g>
	<path d="M47.3,131.4c-4.8,0-7.9-1.1-11.1-3.2l3-6.5c2.2,1.1,5.3,2.2,7.6,2.2c1.1,0,1.6,0,1.6-1.1c0-2.1-11.1-1.1-11.1-9
		c0-5.8,4.8-8.5,10.1-8.5c4.2,0,7.7,0.7,10.8,2.2l-3.1,6.5c-1.9-0.6-4.9-1.9-6.1-1.9c-1.1,0-2.1,0-2.1,1.1c0,2.6,12.2,1.6,12.2,9.5
		C59,129.5,53.1,131.4,47.3,131.4z"/>
	<path d="M81.2,130.6v-2.9h-0.1c-1.5,2.4-4.7,3.7-7.8,3.7c-5.3,0-11.1-4.2-11.1-13s5.8-13,11.1-13c3.2,0,6.4,1.3,7.8,3.7h0.1v-2.9
		h9.5v24.4H81.2z M77,113.4c-2.6,0-4.2,2.1-4.2,5c0,2.9,1.6,5,4.2,5c2.7,0,4.2-2.1,4.2-5C81.2,115.5,79.6,113.4,77,113.4z"/>
	<path d="M106.9,131.7c-5.3,0-8.5-2.1-8.5-7.9v-9.5h-4.2l1.1-7.9h3.2v-6.4l9.5-1.6v7.9h4.8v7.9H108v5.8c0,2.4,0.5,3.2,2.1,3.2
		c1.1,0,1.7-0.3,2.6-1.3v7.7C110.6,131.2,108.5,131.7,106.9,131.7z"/>
</g>
<rect x="5" y="5" fill="none" stroke="#000000" stroke-width="10" stroke-miterlimit="10" width="140" height="140"/>
<circle fill="none" stroke="#000000" stroke-width="10" stroke-miterlimit="10" cx="76.8" cy="33.2" r="11"/>
<rect x="5" y="87" fill="none" stroke="#000000" stroke-width="10" stroke-miterlimit="10" width="140" height="58"/>
</svg>
